<svg viewBox="0 0 1024 1024" xmlns="http://www.w3.org/2000/svg"><style>@media (prefers-color-scheme:dark){svg{filter:invert(1)}}</style><path d="M170.667 469.333c4.266 4.267 12.8 8.534 21.333 8.534s17.067 0 21.333-8.534l64-64 64 64c4.267 4.267 12.8 8.534 21.334 8.534s17.066 0 21.333-8.534c12.8-12.8 12.8-34.133 0-46.933l-59.733-59.733 59.733-64c12.8-12.8 12.8-29.867 0-42.667s-29.867-12.8-42.667 0l-64 59.733-64-59.733c-12.8-12.8-29.866-12.8-42.666 0s-12.8 29.867 0 42.667l64 64-64 64c-12.8 12.8-12.8 29.866 0 42.666z"/><path d="M917.333 85.333H106.667C46.933 85.333 0 132.267 0 192v640c0 59.733 46.933 106.667 106.667 106.667h810.666C977.067 938.667 1024 891.733 1024 832V192c0-59.733-46.933-106.667-106.667-106.667zm-810.666 85.334h810.666c12.8 0 21.334 8.533 21.334 21.333v477.867L686.933 435.2c-17.066-17.067-42.666-17.067-59.733 0L405.333 657.067l-102.4-102.4c-17.066-17.067-38.4-17.067-55.466-4.267L85.333 686.933V192c0-12.8 8.534-21.333 21.334-21.333zm810.666 682.666H106.667c-12.8 0-21.334-8.533-21.334-21.333v-34.133l187.734-149.334 102.4 102.4c17.066 17.067 42.666 17.067 59.733 0l221.867-221.866L934.4 789.333V832c4.267 12.8-4.267 21.333-17.067 21.333z"/></svg>